<svg xmlns="http://www.w3.org/2000/svg" xmlns:xlink="http://www.w3.org/1999/xlink" width="1280" zoomAndPan="magnify" viewBox="0 0 960 599.999999" height="800" preserveAspectRatio="xMidYMid meet" version="1.0"><defs><clipPath id="fac6e56015"><path d="M 62 136 L 865 136 L 865 599.996094 L 62 599.996094 Z M 62 136 " clip-rule="nonzero"/></clipPath><clipPath id="f6968a2aa5"><path d="M 860 429.871094 L 960 429.871094 L 960 600 L 860 600 Z M 860 429.871094 " clip-rule="nonzero"/></clipPath><clipPath id="9866408410"><path d="M 0 0 L 72 0 L 72 169.875 L 0 169.875 Z M 0 0 " clip-rule="nonzero"/></clipPath></defs><path fill="#9cb8ec" d="M 864.015625 463.152344 L 689.339844 463.152344 C 652.535156 463.152344 622.574219 433.191406 622.574219 396.386719 L 622.574219 381.78125 C 622.574219 308.171875 562.652344 248.25 489.042969 248.25 L 474.523438 248.25 C 437.632812 248.25 407.757812 218.289062 407.757812 181.484375 L 407.757812 166.964844 C 407.757812 93.355469 347.835938 33.433594 274.226562 33.433594 L 62.828125 33.433594 L 62.828125 0.0507812 L 274.226562 0.0507812 C 366.195312 0.0507812 441.140625 74.914062 441.140625 166.964844 L 441.140625 181.484375 C 441.140625 199.929688 456.078125 214.867188 474.523438 214.867188 L 489.042969 214.867188 C 581.097656 214.867188 655.957031 289.8125 655.957031 381.78125 L 655.957031 396.386719 C 655.957031 414.746094 670.894531 429.769531 689.339844 429.769531 L 864.015625 429.769531 Z M 864.015625 463.152344 " fill-opacity="1" fill-rule="nonzero"/><path fill="#87c5ec" d="M 864.015625 508.722656 L 677.074219 508.722656 C 621.90625 508.722656 576.925781 463.820312 576.925781 408.574219 L 576.925781 394.050781 C 576.925781 338.800781 532.023438 293.902344 476.777344 293.902344 L 462.253906 293.902344 C 407.007812 293.902344 362.105469 248.917969 362.105469 193.753906 L 362.105469 179.148438 C 362.105469 123.984375 317.207031 79 261.957031 79 L 62.828125 79 L 62.828125 45.617188 L 261.957031 45.617188 C 335.566406 45.617188 395.488281 105.539062 395.488281 179.148438 L 395.488281 193.753906 C 395.488281 230.558594 425.449219 260.519531 462.253906 260.519531 L 476.777344 260.519531 C 550.46875 260.519531 610.308594 320.441406 610.308594 394.050781 L 610.308594 408.574219 C 610.308594 445.375 640.269531 475.339844 677.074219 475.339844 L 864.015625 475.339844 Z M 864.015625 508.722656 " fill-opacity="1" fill-rule="nonzero"/><path fill="#8b9be9" d="M 864.015625 554.371094 L 664.886719 554.371094 C 591.277344 554.371094 531.355469 494.449219 531.355469 420.839844 L 531.355469 406.234375 C 531.355469 369.429688 501.394531 339.46875 464.59375 339.46875 L 450.070312 339.46875 C 376.378906 339.46875 316.539062 279.546875 316.539062 205.9375 L 316.539062 191.417969 C 316.539062 154.613281 286.578125 124.652344 249.773438 124.652344 L 62.828125 124.652344 L 62.828125 91.269531 L 249.773438 91.269531 C 304.9375 91.269531 349.921875 136.167969 349.921875 191.417969 L 349.921875 205.9375 C 349.921875 261.1875 394.820312 306.085938 450.070312 306.085938 L 464.59375 306.085938 C 519.839844 306.085938 564.738281 351.070312 564.738281 406.234375 L 564.738281 420.839844 C 564.738281 476.007812 609.640625 520.988281 664.886719 520.988281 L 864.015625 520.988281 Z M 864.015625 554.371094 " fill-opacity="1" fill-rule="nonzero"/><g clip-path="url(#fac6e56015)"><path fill="#7b67de" d="M 864.015625 599.941406 L 652.621094 599.941406 C 560.652344 599.941406 485.707031 525.078125 485.707031 433.027344 L 485.707031 418.503906 C 485.707031 400.058594 470.765625 385.121094 452.324219 385.121094 L 437.800781 385.121094 C 345.75 385.121094 270.886719 310.175781 270.886719 218.207031 L 270.886719 203.601562 C 270.886719 185.242188 255.949219 170.21875 237.503906 170.21875 L 62.828125 170.21875 L 62.828125 136.835938 L 237.503906 136.835938 C 274.308594 136.835938 304.269531 166.796875 304.269531 203.601562 L 304.269531 218.207031 C 304.269531 291.816406 364.191406 351.738281 437.800781 351.738281 L 452.324219 351.738281 C 489.210938 351.738281 519.089844 381.699219 519.089844 418.503906 L 519.089844 433.027344 C 519.089844 506.632812 579.011719 566.558594 652.621094 566.558594 L 864.015625 566.558594 Z M 864.015625 599.941406 " fill-opacity="1" fill-rule="nonzero"/></g><g clip-path="url(#f6968a2aa5)"><path fill="#9cb8ec" d="M 1661.652344 893.03125 L 1486.976562 893.03125 C 1450.171875 893.03125 1420.210938 863.070312 1420.210938 826.265625 L 1420.210938 811.660156 C 1420.210938 738.050781 1360.292969 678.128906 1286.679688 678.128906 L 1272.160156 678.128906 C 1235.273438 678.128906 1205.394531 648.167969 1205.394531 611.363281 L 1205.394531 596.839844 C 1205.394531 523.230469 1145.472656 463.308594 1071.863281 463.308594 L 860.46875 463.308594 L 860.46875 429.925781 L 1071.863281 429.925781 C 1163.832031 429.925781 1238.777344 504.789062 1238.777344 596.839844 L 1238.777344 611.363281 C 1238.777344 629.808594 1253.714844 644.746094 1272.160156 644.746094 L 1286.679688 644.746094 C 1378.734375 644.746094 1453.59375 719.691406 1453.59375 811.660156 L 1453.59375 826.265625 C 1453.59375 844.625 1468.535156 859.648438 1486.976562 859.648438 L 1661.652344 859.648438 Z M 1661.652344 893.03125 " fill-opacity="1" fill-rule="nonzero"/></g><path fill="#87c5ec" d="M 1661.652344 938.597656 L 1474.710938 938.597656 C 1419.546875 938.597656 1374.5625 893.699219 1374.5625 838.449219 L 1374.5625 823.925781 C 1374.5625 768.679688 1329.660156 723.777344 1274.414062 723.777344 L 1259.890625 723.777344 C 1204.644531 723.777344 1159.742188 678.796875 1159.742188 623.628906 L 1159.742188 609.027344 C 1159.742188 553.859375 1114.84375 508.878906 1059.59375 508.878906 L 860.46875 508.878906 L 860.46875 475.496094 L 1059.59375 475.496094 C 1133.203125 475.496094 1193.125 535.417969 1193.125 609.027344 L 1193.125 623.628906 C 1193.125 660.433594 1223.085938 690.394531 1259.890625 690.394531 L 1274.414062 690.394531 C 1348.105469 690.394531 1407.945312 750.320312 1407.945312 823.925781 L 1407.945312 838.449219 C 1407.945312 875.253906 1437.90625 905.214844 1474.710938 905.214844 L 1661.652344 905.214844 Z M 1661.652344 938.597656 " fill-opacity="1" fill-rule="nonzero"/><path fill="#8b9be9" d="M 1661.652344 984.25 L 1462.527344 984.25 C 1388.917969 984.25 1328.996094 924.324219 1328.996094 850.71875 L 1328.996094 836.113281 C 1328.996094 799.308594 1299.035156 769.347656 1262.230469 769.347656 L 1247.707031 769.347656 C 1174.015625 769.347656 1114.175781 709.425781 1114.175781 635.816406 L 1114.175781 621.292969 C 1114.175781 584.488281 1084.214844 554.527344 1047.410156 554.527344 L 860.46875 554.527344 L 860.46875 521.144531 L 1047.410156 521.144531 C 1102.574219 521.144531 1147.558594 566.046875 1147.558594 621.292969 L 1147.558594 635.816406 C 1147.558594 691.0625 1192.460938 735.964844 1247.707031 735.964844 L 1262.230469 735.964844 C 1317.476562 735.964844 1362.378906 780.949219 1362.378906 836.113281 L 1362.378906 850.71875 C 1362.378906 905.882812 1407.277344 950.867188 1462.527344 950.867188 L 1661.652344 950.867188 Z M 1661.652344 984.25 " fill-opacity="1" fill-rule="nonzero"/><path fill="#7b67de" d="M 1661.652344 1029.816406 L 1450.257812 1029.816406 C 1358.289062 1029.816406 1283.34375 954.953125 1283.34375 862.902344 L 1283.34375 848.378906 C 1283.34375 829.9375 1268.40625 814.996094 1249.960938 814.996094 L 1235.4375 814.996094 C 1143.386719 814.996094 1068.527344 740.054688 1068.527344 648.082031 L 1068.527344 633.480469 C 1068.527344 615.117188 1053.585938 600.097656 1035.144531 600.097656 L 860.46875 600.097656 L 860.46875 566.714844 L 1035.144531 566.714844 C 1071.949219 566.714844 1101.90625 596.675781 1101.90625 633.480469 L 1101.90625 648.082031 C 1101.90625 721.691406 1161.828125 781.613281 1235.4375 781.613281 L 1249.960938 781.613281 C 1286.847656 781.613281 1316.726562 811.574219 1316.726562 848.378906 L 1316.726562 862.902344 C 1316.726562 936.511719 1376.648438 996.433594 1450.257812 996.433594 L 1661.652344 996.433594 Z M 1661.652344 1029.816406 " fill-opacity="1" fill-rule="nonzero"/><path fill="#9cb8ec" d="M 71.429688 33.035156 L -103.246094 33.035156 C -140.050781 33.035156 -170.011719 3.074219 -170.011719 -33.730469 L -170.011719 -48.335938 C -170.011719 -121.945312 -229.933594 -181.867188 -303.542969 -181.867188 L -318.0625 -181.867188 C -354.953125 -181.867188 -384.828125 -211.828125 -384.828125 -248.632812 L -384.828125 -263.152344 C -384.828125 -336.761719 -444.75 -396.683594 -518.359375 -396.683594 L -729.757812 -396.683594 L -729.757812 -430.066406 L -518.359375 -430.066406 C -426.390625 -430.066406 -351.445312 -355.207031 -351.445312 -263.152344 L -351.445312 -248.632812 C -351.445312 -230.1875 -336.507812 -215.25 -318.0625 -215.25 L -303.542969 -215.25 C -211.488281 -215.25 -136.628906 -140.304688 -136.628906 -48.335938 L -136.628906 -33.730469 C -136.628906 -15.371094 -121.6875 -0.347656 -103.246094 -0.347656 L 71.429688 -0.347656 Z M 71.429688 33.035156 " fill-opacity="1" fill-rule="nonzero"/><path fill="#87c5ec" d="M 71.429688 78.601562 L -115.511719 78.601562 C -170.679688 78.601562 -215.660156 33.703125 -215.660156 -21.546875 L -215.660156 -36.066406 C -215.660156 -91.316406 -260.5625 -136.214844 -315.808594 -136.214844 L -330.332031 -136.214844 C -385.578125 -136.214844 -430.480469 -181.199219 -430.480469 -236.363281 L -430.480469 -250.96875 C -430.480469 -306.132812 -475.378906 -351.117188 -530.628906 -351.117188 L -729.757812 -351.117188 L -729.757812 -384.5 L -530.628906 -384.5 C -457.019531 -384.5 -397.097656 -324.578125 -397.097656 -250.96875 L -397.097656 -236.363281 C -397.097656 -199.558594 -367.136719 -169.597656 -330.332031 -169.597656 L -315.808594 -169.597656 C -242.117188 -169.597656 -182.277344 -109.675781 -182.277344 -36.066406 L -182.277344 -21.546875 C -182.277344 15.257812 -152.316406 45.21875 -115.511719 45.21875 L 71.429688 45.21875 Z M 71.429688 78.601562 " fill-opacity="1" fill-rule="nonzero"/><path fill="#8b9be9" d="M 71.429688 124.253906 L -127.699219 124.253906 C -201.308594 124.253906 -261.226562 64.332031 -261.226562 -9.277344 L -261.226562 -23.882812 C -261.226562 -60.6875 -291.191406 -90.648438 -327.992188 -90.648438 L -342.515625 -90.648438 C -416.207031 -90.648438 -476.046875 -150.570312 -476.046875 -224.179688 L -476.046875 -238.699219 C -476.046875 -275.503906 -506.007812 -305.464844 -542.8125 -305.464844 L -729.757812 -305.464844 L -729.757812 -338.847656 L -542.8125 -338.847656 C -487.648438 -338.847656 -442.664062 -293.949219 -442.664062 -238.699219 L -442.664062 -224.179688 C -442.664062 -168.929688 -397.765625 -124.03125 -342.515625 -124.03125 L -327.992188 -124.03125 C -272.746094 -124.03125 -227.84375 -79.046875 -227.84375 -23.882812 L -227.84375 -9.277344 C -227.84375 45.886719 -182.945312 90.871094 -127.699219 90.871094 L 71.429688 90.871094 Z M 71.429688 124.253906 " fill-opacity="1" fill-rule="nonzero"/><g clip-path="url(#9866408410)"><path fill="#7b67de" d="M 71.429688 169.820312 L -139.964844 169.820312 C -231.933594 169.820312 -306.878906 94.960938 -306.878906 2.90625 L -306.878906 -11.613281 C -306.878906 -30.058594 -321.820312 -44.996094 -340.261719 -44.996094 L -354.785156 -44.996094 C -446.835938 -44.996094 -521.699219 -119.941406 -521.699219 -211.910156 L -521.699219 -226.515625 C -521.699219 -244.875 -536.636719 -259.898438 -555.082031 -259.898438 L -729.757812 -259.898438 L -729.757812 -293.28125 L -555.082031 -293.28125 C -518.277344 -293.28125 -488.316406 -263.320312 -488.316406 -226.515625 L -488.316406 -211.910156 C -488.316406 -138.300781 -428.394531 -78.378906 -354.785156 -78.378906 L -340.261719 -78.378906 C -303.375 -78.378906 -273.496094 -48.417969 -273.496094 -11.613281 L -273.496094 2.90625 C -273.496094 76.515625 -213.574219 136.4375 -139.964844 136.4375 L 71.429688 136.4375 Z M 71.429688 169.820312 " fill-opacity="1" fill-rule="nonzero"/></g></svg>